<svg viewBox="0 0 600 600" xmlns="http://www.w3.org/2000/svg" preserveAspectRatio="xMidYMid meet">
  <!-- Weißer Hintergrund -->
  <rect width="600" height="600" fill="#FFFFFF" />

  <!-- Original Sky-Grafik zentriert & skaliert -->
  <g transform="translate(0, 75) scale(1)">
    <defs>
      <linearGradient id="grad1" x1="305.6" y1="166.7" x2="481.7" y2="65" gradientUnits="userSpaceOnUse">
        <stop offset="0" stop-color="#E20720"/>
        <stop offset="0.33" stop-color="#D20F81"/>
        <stop offset="0.72" stop-color="#383088"/>
        <stop offset="1" stop-color="#1493D2"/>
      </linearGradient>
      <linearGradient id="grad2" x1="73" y1="186" x2="216" y2="103.5" gradientUnits="userSpaceOnUse">
        <stop offset="0" stop-color="#EF7D06"/>
        <stop offset="0.54" stop-color="#E31113"/>
        <stop offset="1" stop-color="#E50766"/>
      </linearGradient>
      <linearGradient id="grad3" x1="193.7" y1="165.9" x2="307.6" y2="100.2" gradientUnits="userSpaceOnUse">
        <stop offset="0" stop-color="#EF7D06"/>
        <stop offset="0.54" stop-color="#E31113"/>
        <stop offset="1" stop-color="#E50766"/>
      </linearGradient>
    </defs>

    <path fill="url(#grad1)" d="M407.4,362.9c-6.4,0.2-12.8-0.8-18.9-3c-2.4-0.8-3-1.7-1.8-4.2l34-71.4c1.2-2,1.2-4.5,0-6.4l-56.5-88.6
      c-1.2-1.9-2.1-2.1-3.7-0.5l-32.9,34.8c-1.5,1.6-0.8,2.6,0,3.9l48.8,73.6c0.9,1.4,1.7,2.6-0.6,3.4c-14,5.6-29.6,5.4-43.5-0.5
      c-6.2-3-11.3-7.8-14.9-13.7l-41.9-65.6c-1.7-1.7-1.6-4.4,0.1-6.1l52.7-57.4c15.8-17.4,35.1-21.1,57.1-16.1
      c1.9,0.5,3.5,1.8,4.3,3.5l47.4,77.1c1.4,2.2,2.6,4.4,4.1,6.4c0.4,0.6,0.6,1.8,1.5,1.7c0.9-0.1,1.2-1.3,1.5-2.1l27.3-64.2
      c8.9-20.6,25.3-26.7,45.9-21.9c1.6,0.4,3.1,1,4.7,1.4c3.9,1.2,4.1,1.3,2.2,5l-85.4,189.2c-2.6,6.9-7.2,12.9-13.2,17.2
      C420.6,361.9,414,363.5,407.4,362.9z"/>

    <path fill="url(#grad2)" d="M139.8,308c-19.8-0.3-37.4-1.5-54.9-3.2c-4.6-0.5-5-0.8-5.2-5.3c-0.6-5.4-0.3-10.8,0.8-16.1
      c1.9-10.5,11.2-18,21.9-17.7c10.5,0,21,1,31.4,1.5c8.6,0.8,17.2,0.7,25.7-0.3c2.3-0.3,4.5-1.1,6.4-2.4c3.8-1.9,5.4-6.5,3.6-10.3
      c-0.8-1.6-2-2.8-3.6-3.6c-4.1-2.2-8.6-3.6-13.2-4.2c-11.6-2.4-23.4-4.4-35-6.8c-13.4-2.1-25.4-9.3-33.7-20
      c-14.7-20-10.5-48.2,9.5-62.9c0.6-0.5,1.3-0.9,2-1.4c10.3-6.8,22.1-10.7,34.4-11.4c23.8-1.7,47.7-1,71.3,2.3c2.4,0,3.2,1.3,3.6,3.6
      c1,5.9,0.8,12-0.6,17.8c-1.9,10.3-11.1,17.6-21.5,17c-10.7,0-21.3-1.2-32.1-1.4c-6.7-0.4-13.4-0.2-20.1,0.8
      c-2.8,0.4-5.5,1.4-8,3c-3.1,1.7-4.3,5.5-2.7,8.7c0.6,1.2,1.5,2.1,2.7,2.7c3.6,1.9,7.5,3.2,11.6,3.7c13.6,2.7,27.5,4.6,41,8
      c11.9,2.6,22.7,9.1,30.5,18.4c14.5,17.6,13.6,55-15.4,69.9c-10.8,5.4-22.6,8.4-34.7,8.8C150.3,307.8,145,308,139.8,308z"/>

    <path fill="url(#grad3)" d="M272,190.5v95.9c1.3,9.8-5.6,18.8-15.4,20.1c-0.1,0-0.3,0-0.4,0.1c-8.4,1.9-17.1,2.3-25.7,1.3
      c-1.5,0.1-2.8-1.1-2.9-2.7c0-0.2,0-0.4,0-0.6c0-0.8,0-1.6,0-2.4V117.7c0-3,0.3-6.1,0.9-9.1c1.5-9.7,8.9-17.4,18.6-19.3
      c6.9-1.7,14.1-2.1,21.2-1.2c3,0.4,3.5,1.9,3.5,4.5c0,32.7,0,65.4,0,98L272,190.5z"/>
  </g>
</svg>
